<svg width="30" height="55" viewBox="0 0 30 55" fill="none" xmlns="http://www.w3.org/2000/svg">
<g clip-path="url(#clip0_1_6)">
<path d="M6.72816 42.5564C3.01456 42.5491 0.00728155 39.5381 0 35.8198V29.7976H7.35437V34.0991C7.35437 35.0251 8.10437 35.776 9.02913 35.776H20.6796C21.6044 35.776 22.3544 35.0251 22.3544 34.0991V28.8279C22.3544 27.0709 21.5388 26.5751 19.8277 26.1814L8.46845 23.7317C5.59223 23.112 3.64078 22.2735 2.3301 21.0924C0.859223 19.7728 0.145631 17.9428 0.145631 15.5004V7.66288C0.152913 3.9446 3.16019 0.933515 6.87379 0.926224H22.5437C26.2573 0.933515 29.2646 3.9446 29.2718 7.66288V13.1747H21.9175V9.3835C21.9175 8.45757 21.1675 7.70662 20.2427 7.70662H9.46602C8.54126 7.70662 7.79126 8.45757 7.79126 9.3835V14.1589C7.79126 15.916 8.6068 16.4118 10.318 16.8055L21.6772 19.2552C24.5534 19.8749 26.5049 20.7133 27.8155 21.8944C29.2864 23.2141 30 25.044 30 27.4864V35.8198C29.9927 39.5381 26.9854 42.5491 23.2718 42.5564H6.72816Z" fill="white"/>
<path d="M0 51H30" stroke="white" stroke-width="7"/>
</g>
<defs>
<clipPath id="clip0_1_6">
<rect width="30" height="55" fill="white"/>
</clipPath>
</defs>
</svg>
