<svg width="6" height="10" viewBox="0 0 6 10" fill="none" xmlns="http://www.w3.org/2000/svg">
<g clip-path="url(#clip0_10_3)">
<path d="M2.57626 0.776245C2.81063 0.54187 3.19126 0.54187 3.42563 0.776245L5.82563 3.17624C5.99813 3.34874 6.04876 3.60562 5.95501 3.83062C5.86126 4.05562 5.64376 4.20187 5.40001 4.20187H0.600006C0.358131 4.20187 0.138756 4.05562 0.0450062 3.83062C-0.0487438 3.60562 0.00375621 3.34874 0.174381 3.17624L2.57438 0.776245H2.57626ZM2.57626 8.82562L0.176256 6.42562C0.00375621 6.25312 -0.0468688 5.99624 0.0468812 5.77124C0.140631 5.54624 0.358131 5.39999 0.601881 5.39999H5.40001C5.64188 5.39999 5.86126 5.54624 5.95501 5.77124C6.04876 5.99624 5.99626 6.25312 5.82563 6.42562L3.42563 8.82562C3.19126 9.05999 2.81063 9.05999 2.57626 8.82562Z" fill="#6B7280"/>
</g>
<defs>
<clipPath id="clip0_10_3">
<rect width="6" height="9.6" fill="white"/>
</clipPath>
</defs>
</svg>
